<?xml version="1.0" encoding="utf-8"?>
<!-- Generator: Adobe Illustrator 25.4.1, SVG Export Plug-In . SVG Version: 6.00 Build 0)  -->
<svg version="1.1" id="Capa_1" xmlns="http://www.w3.org/2000/svg" xmlns:xlink="http://www.w3.org/1999/xlink" x="0px" y="0px"
	 viewBox="0 0 792 280.55" style="enable-background:new 0 0 792 280.55;" xml:space="preserve">
<style type="text/css">
	.st0{fill:#35687D;}
	.st1{fill:#FDC300;}
</style>
<g>
	<g>
		<g>
			<path class="st0" d="M88.09,134.55H53.01l-4.87,20.08H16.6L54.18,33h33.7l37.57,121.63H93.1L88.09,134.55z M81.68,108.25
				L70.65,64.53l-10.92,43.72H81.68z"/>
		</g>
		<g>
			<path class="st0" d="M88.09,134.55H53.01l-4.87,20.08H16.6L54.18,33h33.7l37.57,121.63H93.1L88.09,134.55z M81.68,108.25
				L70.65,64.53l-10.92,43.72H81.68z"/>
		</g>
		<g>
			<path class="st0" d="M195.57,33h30.83v72.46c0,7.19-0.92,13.97-2.76,20.35c-1.84,6.38-4.73,11.97-8.66,16.75
				c-3.93,4.78-8.06,8.14-12.38,10.07c-6,2.71-13.21,4.06-21.62,4.06c-4.86,0-10.17-0.41-15.93-1.24
				c-5.75-0.83-10.56-2.48-14.42-4.94c-3.87-2.46-7.4-5.96-10.61-10.49c-3.21-4.53-5.4-9.2-6.58-14.01
				c-1.91-7.74-2.86-14.59-2.86-20.56V33h30.83v74.19c0,6.63,1.51,11.81,4.54,15.54c3.02,3.73,7.22,5.6,12.58,5.6
				c5.32,0,9.49-1.84,12.52-5.51c3.02-3.68,4.54-8.88,4.54-15.63V33z"/>
		</g>
		<g>
			<path class="st0" d="M195.57,33h30.83v72.46c0,7.19-0.92,13.97-2.76,20.35c-1.84,6.38-4.73,11.97-8.66,16.75
				c-3.93,4.78-8.06,8.14-12.38,10.07c-6,2.71-13.21,4.06-21.62,4.06c-4.86,0-10.17-0.41-15.93-1.24
				c-5.75-0.83-10.56-2.48-14.42-4.94c-3.87-2.46-7.4-5.96-10.61-10.49c-3.21-4.53-5.4-9.2-6.58-14.01
				c-1.91-7.74-2.86-14.59-2.86-20.56V33h30.83v74.19c0,6.63,1.51,11.81,4.54,15.54c3.02,3.73,7.22,5.6,12.58,5.6
				c5.32,0,9.49-1.84,12.52-5.51c3.02-3.68,4.54-8.88,4.54-15.63V33z"/>
		</g>
		<g>
			<path class="st0" d="M239.83,33h93.92v30.03h-31.51v91.59h-30.89V63.03h-31.51V33z"/>
		</g>
		<g>
			<path class="st0" d="M239.83,33h93.92v30.03h-31.51v91.59h-30.89V63.03h-31.51V33z"/>
		</g>
		<g>
			<path class="st0" d="M339.06,93.9c0-19.86,4.55-35.31,13.64-46.38c9.09-11.06,21.76-16.59,37.99-16.59
				c16.64,0,29.46,5.43,38.47,16.3c9,10.87,13.51,26.09,13.51,45.67c0,14.21-1.97,25.87-5.9,34.97c-3.93,9.1-9.62,16.18-17.05,21.24
				c-7.43,5.06-16.7,7.59-27.79,7.59c-11.28,0-20.61-2.18-28-6.55c-7.39-4.37-13.38-11.28-17.97-20.74
				C341.36,119.95,339.06,108.11,339.06,93.9z M369.96,94.06c0,12.28,1.88,21.1,5.63,26.46s8.85,8.05,15.31,8.05
				c6.64,0,11.78-2.63,15.41-7.88c3.64-5.25,5.46-14.68,5.46-28.29c0-11.45-1.9-19.82-5.69-25.1c-3.8-5.28-8.95-7.92-15.45-7.92
				c-6.23,0-11.23,2.68-15.01,8.05C371.85,72.8,369.96,81.67,369.96,94.06z"/>
		</g>
		<g>
			<path class="st0" d="M339.06,93.9c0-19.86,4.55-35.31,13.64-46.38c9.09-11.06,21.76-16.59,37.99-16.59
				c16.64,0,29.46,5.43,38.47,16.3c9,10.87,13.51,26.09,13.51,45.67c0,14.21-1.97,25.87-5.9,34.97c-3.93,9.1-9.62,16.18-17.05,21.24
				c-7.43,5.06-16.7,7.59-27.79,7.59c-11.28,0-20.61-2.18-28-6.55c-7.39-4.37-13.38-11.28-17.97-20.74
				C341.36,119.95,339.06,108.11,339.06,93.9z M369.96,94.06c0,12.28,1.88,21.1,5.63,26.46s8.85,8.05,15.31,8.05
				c6.64,0,11.78-2.63,15.41-7.88c3.64-5.25,5.46-14.68,5.46-28.29c0-11.45-1.9-19.82-5.69-25.1c-3.8-5.28-8.95-7.92-15.45-7.92
				c-6.23,0-11.23,2.68-15.01,8.05C371.85,72.8,369.96,81.67,369.96,94.06z"/>
		</g>
		<g>
			<path class="st1" d="M525.87,104.85l27.08,9.96c-1.82,9.24-4.68,16.95-8.59,23.15c-3.91,6.19-8.77,10.87-14.56,14.02
				s-13.18,4.73-22.13,4.73c-10.87,0-19.74-1.92-26.63-5.76c-6.89-3.84-12.83-10.6-17.84-20.27c-5-9.67-7.5-22.05-7.5-37.15
				c0-20.12,4.4-35.58,13.2-46.39c8.8-10.8,21.25-16.21,37.34-16.21c12.59,0,22.5,3.1,29.7,9.29c7.21,6.2,12.56,15.71,16.06,28.54
				l-27.28,7.38c-0.95-3.7-1.95-6.41-3-8.13c-1.73-2.88-3.84-5.09-6.34-6.64c-2.5-1.55-5.3-2.32-8.39-2.32
				c-7,0-12.37,3.43-16.1,10.28c-2.82,5.08-4.23,13.06-4.23,23.95c0,13.48,1.68,22.72,5.05,27.72s8.09,7.5,14.19,7.5
				c5.91,0,10.38-2.02,13.4-6.06C522.31,118.4,524.51,112.53,525.87,104.85z"/>
		</g>
		<g>
			<path class="st1" d="M525.87,104.85l27.08,9.96c-1.82,9.24-4.68,16.95-8.59,23.15c-3.91,6.19-8.77,10.87-14.56,14.02
				s-13.18,4.73-22.13,4.73c-10.87,0-19.74-1.92-26.63-5.76c-6.89-3.84-12.83-10.6-17.84-20.27c-5-9.67-7.5-22.05-7.5-37.15
				c0-20.12,4.4-35.58,13.2-46.39c8.8-10.8,21.25-16.21,37.34-16.21c12.59,0,22.5,3.1,29.7,9.29c7.21,6.2,12.56,15.71,16.06,28.54
				l-27.28,7.38c-0.95-3.7-1.95-6.41-3-8.13c-1.73-2.88-3.84-5.09-6.34-6.64c-2.5-1.55-5.3-2.32-8.39-2.32
				c-7,0-12.37,3.43-16.1,10.28c-2.82,5.08-4.23,13.06-4.23,23.95c0,13.48,1.68,22.72,5.05,27.72s8.09,7.5,14.19,7.5
				c5.91,0,10.38-2.02,13.4-6.06C522.31,118.4,524.51,112.53,525.87,104.85z"/>
		</g>
		<g>
			<path class="st1" d="M629.45,134.55h-35.08l-4.87,20.08h-31.55L595.54,33h33.7l37.57,121.63h-32.35L629.45,134.55z
				 M623.05,108.25l-11.04-43.72l-10.92,43.72H623.05z"/>
		</g>
		<g>
			<path class="st1" d="M629.45,134.55h-35.08l-4.87,20.08h-31.55L595.54,33h33.7l37.57,121.63h-32.35L629.45,134.55z
				 M623.05,108.25l-11.04-43.72l-10.92,43.72H623.05z"/>
		</g>
		<g>
			<path class="st1" d="M677.05,154.62V33h51.49c9.55,0,16.85,1,21.89,2.99c5.05,1.99,9.12,5.68,12.21,11.08
				c3.09,5.39,4.64,11.96,4.64,19.7c0,6.75-1.18,12.57-3.55,17.46s-5.62,8.86-9.76,11.9c-2.64,1.94-6.26,3.54-10.85,4.81
				c3.68,1.5,6.36,2.99,8.04,4.48c1.14,1,2.78,3.13,4.94,6.39c2.16,3.27,3.6,5.79,4.33,7.56l14.96,35.24h-34.91l-16.51-37.17
				c-2.09-4.81-3.96-7.94-5.59-9.37c-2.23-1.88-4.75-2.82-7.57-2.82h-2.73v49.36H677.05z M708.09,82.28h13.03
				c1.41,0,4.14-0.55,8.18-1.66c2.05-0.5,3.72-1.77,5.01-3.82c1.3-2.04,1.95-4.4,1.95-7.05c0-3.93-1.02-6.94-3.07-9.04
				c-2.05-2.1-5.89-3.15-11.53-3.15h-13.57V82.28z"/>
		</g>
		<g>
			<path class="st1" d="M677.05,154.62V33h51.49c9.55,0,16.85,1,21.89,2.99c5.05,1.99,9.12,5.68,12.21,11.08
				c3.09,5.39,4.64,11.96,4.64,19.7c0,6.75-1.18,12.57-3.55,17.46s-5.62,8.86-9.76,11.9c-2.64,1.94-6.26,3.54-10.85,4.81
				c3.68,1.5,6.36,2.99,8.04,4.48c1.14,1,2.78,3.13,4.94,6.39c2.16,3.27,3.6,5.79,4.33,7.56l14.96,35.24h-34.91l-16.51-37.17
				c-2.09-4.81-3.96-7.94-5.59-9.37c-2.23-1.88-4.75-2.82-7.57-2.82h-2.73v49.36H677.05z M708.09,82.28h13.03
				c1.41,0,4.14-0.55,8.18-1.66c2.05-0.5,3.72-1.77,5.01-3.82c1.3-2.04,1.95-4.4,1.95-7.05c0-3.93-1.02-6.94-3.07-9.04
				c-2.05-2.1-5.89-3.15-11.53-3.15h-13.57V82.28z"/>
		</g>
	</g>
	<g>
		<path class="st0" d="M172.39,230.83h-10.37v-62.87h10.37V230.83z"/>
		<path class="st0" d="M216.94,230.83h-9.68V205.2c0-2.54-0.86-4.81-2.57-6.8s-3.86-2.99-6.43-2.99c-2.51,0-4.63,0.91-6.34,2.73
			c-1.71,1.82-2.57,3.94-2.57,6.37v26.33h-9.85v-26.5c0-5.02,1.81-9.32,5.44-12.9c3.63-3.58,8.07-5.37,13.33-5.37
			c4.23,0,8.11,1.36,11.65,4.07c4.68,3.52,7.03,8.49,7.03,14.9V230.83z"/>
		<path class="st0" d="M234,234.01c0,4.63-1.31,8.3-3.94,11.01c-2.91,3.06-7.08,4.6-12.51,4.6H213v-9.52h4.37
			c3.03,0,5.03-0.93,6-2.78c0.63-1.39,0.94-3.91,0.94-7.55V187.1H234V234.01z M234.68,179.13c0,1.68-0.57,2.99-1.71,3.94
			c-1.14,0.95-2.4,1.43-3.77,1.43c-1.31,0-2.54-0.43-3.68-1.3c-1.32-1.15-1.97-2.57-1.97-4.24c0-1.85,0.5-3.28,1.5-4.29
			c1-1.01,2.24-1.52,3.73-1.52c1.77,0,3.2,0.46,4.28,1.39C234.14,175.47,234.68,176.99,234.68,179.13z"/>
		<path class="st0" d="M285.06,210.31c0,5.14-1.88,9.85-5.66,14.12c-4.34,4.91-10.08,7.36-17.22,7.36c-5.83,0-10.94-2.15-15.34-6.45
			c-4.4-4.3-6.6-9.45-6.6-15.46c0-7.56,2.46-13.57,7.37-18.02c4.23-3.75,9.14-5.63,14.74-5.63c4.97,0,9.14,1.15,12.51,3.46
			c3.37,2.31,6.4,6.03,9.08,11.17L254.3,217.5l-4.19-8.05l20.05-11.25c-0.74-0.75-1.74-1.36-3-1.83c-1.26-0.47-2.86-0.7-4.8-0.7
			c-3.77,0-6.74,1.36-8.91,4.07c-2.17,2.71-3.26,5.98-3.26,9.79c0,3.23,1.14,6.16,3.43,8.79c2.29,2.63,5.31,3.94,9.09,3.94
			c3.88,0,6.83-1.13,8.83-3.38c1.83-2.02,3.2-5.31,4.11-9.87L285.06,210.31z"/>
		<path class="st0" d="M319.08,230.83l-8.74-0.09c-6.68,0-12.05-2.48-16.11-7.45c-3.48-4.21-5.23-8.95-5.23-14.2
			c0-6.06,1.83-11.14,5.48-15.24c3.94-4.5,9.22-6.76,15.85-6.76h8.74v9.44h-7.59c-2.84,0-5.43,0.92-7.76,2.77
			c-3.01,2.37-4.52,5.69-4.52,9.96c0,2.94,1.02,5.6,3.07,7.97c2.5,2.77,5.69,4.16,9.56,4.16h7.25V230.83z"/>
		<path class="st0" d="M352.41,230.83l-8.74-0.09c-6.68,0-12.05-2.48-16.11-7.45c-3.48-4.21-5.23-8.95-5.23-14.2
			c0-6.06,1.83-11.14,5.48-15.24c3.94-4.5,9.22-6.76,15.85-6.76h8.74v9.44h-7.59c-2.84,0-5.43,0.92-7.76,2.77
			c-3.01,2.37-4.52,5.69-4.52,9.96c0,2.94,1.02,5.6,3.07,7.97c2.5,2.77,5.69,4.16,9.56,4.16h7.25V230.83z"/>
		<path class="st0" d="M370.48,178.78c0,1.73-0.51,3.12-1.54,4.16c-1.03,1.04-2.31,1.56-3.86,1.56c-1.6,0-2.96-0.53-4.07-1.6
			c-1.11-1.07-1.67-2.52-1.67-4.37c0-1.56,0.57-2.84,1.71-3.85c1.14-1.01,2.43-1.52,3.86-1.52c1.49,0,2.78,0.54,3.9,1.6
			C369.93,175.82,370.48,177.17,370.48,178.78z M369.71,230.83h-9.68V187.1h9.68V230.83z"/>
		<path class="st0" d="M422.84,208.57c0,5.49-1.76,10.54-5.29,15.16c-4.1,5.26-9.36,7.88-15.79,7.88c-7,0-12.73-2.22-17.2-6.67
			c-4.47-4.45-6.7-10.02-6.7-16.71v-0.09v0.26c0-6.24,2.34-11.55,7.03-15.94c4.46-4.16,9.54-6.24,15.25-6.24
			c5.83,0,10.94,1.88,15.34,5.63C420.38,196.13,422.84,201.7,422.84,208.57z M412.64,207.88c0-3.69-1.17-6.67-3.5-8.92
			c-2.33-2.25-5.29-3.38-8.88-3.38c-4.04,0-7.2,1.41-9.48,4.24c-1.99,2.48-2.99,5.28-2.99,8.4c0,3.87,0.88,6.99,2.65,9.35
			c2.22,3.12,5.61,4.68,10.16,4.68c3.53,0,6.42-1.18,8.67-3.55C411.52,216.34,412.64,212.73,412.64,207.88z M414.18,169.78
			l-12.94,14.72h-8.4l9-14.72H414.18z"/>
		<path class="st0" d="M464.74,230.83h-9.68V205.2c0-2.54-0.86-4.81-2.57-6.8s-3.86-2.99-6.43-2.99c-2.51,0-4.63,0.91-6.34,2.73
			c-1.71,1.82-2.57,3.94-2.57,6.37v26.33h-9.85v-26.5c0-5.02,1.81-9.32,5.44-12.9c3.63-3.58,8.07-5.37,13.33-5.37
			c4.23,0,8.11,1.36,11.65,4.07c4.68,3.52,7.03,8.49,7.03,14.9V230.83z"/>
		<path class="st0" d="M528.4,215.81c0,3.83-1.08,7.07-3.22,9.71c-2.76,3.47-7.03,5.2-12.81,5.2h-20.48v-8.76h20
			c2.15,0,3.9-0.39,5.23-1.16s2.1-2.09,2.31-3.95v-0.93c0-1.65-0.58-3.06-1.73-4.22c-1.15-1.16-2.85-2.29-5.1-3.37l-9.66-4.88
			c-3.48-1.96-5.98-3.93-7.52-5.89c-1.99-2.58-2.99-5.48-2.99-8.68c0-4.55,1.56-8.17,4.68-10.85c2.81-2.38,6.03-3.56,9.66-3.56h19.4
			v8.76h-19.4c-1.69,0-3.03,0.5-4.03,1.51c-1,1.01-1.5,2.29-1.5,3.84c0.15,1.86,0.83,3.2,2.03,4c1.2,0.8,2.44,1.58,3.72,2.33
			c1.28,0.75,2.76,1.51,4.45,2.29l6.9,3.42c2.76,1.6,5.01,3.52,6.75,5.74C527.3,209.18,528.4,212.34,528.4,215.81z"/>
		<path class="st0" d="M570.04,230.71h-9.13v-24.65h-19.25v-8.91h19.25c0-9.92-3.34-14.88-10.01-14.88c-3.67,0-6.39,1.39-8.18,4.18
			c-1.33,2.12-1.99,4.52-1.99,7.21v37.05h-9.28l0.15-37.13c0-5.79,1.8-10.58,5.41-14.38s8.09-5.7,13.46-5.7
			c5.78,0,10.43,1.86,13.96,5.58c3.73,3.93,5.6,9.35,5.6,16.28V230.71z"/>
		<path class="st0" d="M609.46,215.81c0,3.83-1.08,7.07-3.22,9.71c-2.76,3.47-7.03,5.2-12.81,5.2h-20.48v-8.76h19.99
			c2.15,0,3.9-0.39,5.23-1.16s2.1-2.09,2.31-3.95v-0.93c0-1.65-0.58-3.06-1.73-4.22c-1.15-1.16-2.85-2.29-5.1-3.37l-9.66-4.88
			c-3.48-1.96-5.98-3.93-7.52-5.89c-1.99-2.58-2.99-5.48-2.99-8.68c0-4.55,1.56-8.17,4.68-10.85c2.81-2.38,6.03-3.56,9.66-3.56h19.4
			v8.76h-19.4c-1.69,0-3.03,0.5-4.03,1.51c-1,1.01-1.5,2.29-1.5,3.84c0.15,1.86,0.83,3.2,2.03,4c1.2,0.8,2.44,1.58,3.72,2.33
			c1.28,0.75,2.76,1.51,4.45,2.29l6.9,3.42c2.76,1.6,5.01,3.52,6.75,5.74C608.36,209.18,609.46,212.34,609.46,215.81z"/>
		<path class="st0" d="M628.45,224.94c0,1.96-0.63,3.52-1.89,4.68s-2.71,1.73-4.37,1.73c-1.6,0-2.98-0.61-4.16-1.82
			c-1.17-1.21-1.76-2.77-1.76-4.68c0-1.62,0.56-2.99,1.67-4.11c1.11-1.13,2.5-1.69,4.16-1.69s3.13,0.52,4.41,1.56
			C627.81,221.65,628.45,223.1,628.45,224.94z"/>
	</g>
</g>
</svg>
